HIERARCHY
ROOT Hips
{
  OFFSET 0.0251591 35.254 0.0946942
  CHANNELS 6 Xposition Yposition Zposition Zrotation Xrotation Yrotation
  JOINT LeftHip
  {
    OFFSET 3.43 0 0
    CHANNELS 6 Xposition Yposition Zposition Zrotation Xrotation Yrotation
    JOINT LeftKnee
    {
      OFFSET 0 -18.47 0
      CHANNELS 6 Xposition Yposition Zposition Zrotation Xrotation Yrotation
      JOINT LeftAnkle
      {
        OFFSET 0 -17.95 0
        CHANNELS 6 Xposition Yposition Zposition Zrotation Xrotation Yrotation
        End Site
        {
          OFFSET 0 -3.12 0
        }
      }
    }
  }
  JOINT RightHip
  {
    OFFSET -3.43 0 0
    CHANNELS 6 Xposition Yposition Zposition Zrotation Xrotation Yrotation
    JOINT RightKnee
    {
      OFFSET 0 -18.47 0
      CHANNELS 6 Xposition Yposition Zposition Zrotation Xrotation Yrotation
      JOINT RightAnkle
      {
        OFFSET 0 -17.95 0
        CHANNELS 6 Xposition Yposition Zposition Zrotation Xrotation Yrotation
        End Site
        {
          OFFSET 0 -3.12 0
        }
      }
    }
  }
  JOINT Chest
  {
    OFFSET 0 4.57 0
    CHANNELS 6 Xposition Yposition Zposition Zrotation Xrotation Yrotation
    JOINT Chest2
    {
      OFFSET 0 6.57 0
      CHANNELS 6 Xposition Yposition Zposition Zrotation Xrotation Yrotation
      JOINT LeftCollar
      {
        OFFSET 1.06 4.19 1.76
        CHANNELS 6 Xposition Yposition Zposition Zrotation Xrotation Yrotation
        JOINT LeftShoulder
        {
          OFFSET 5.81 0 0
          CHANNELS 6 Xposition Yposition Zposition Zrotation Xrotation Yrotation
          JOINT LeftElbow
          {
            OFFSET 0 -12.08 0
            CHANNELS 6 Xposition Yposition Zposition Zrotation Xrotation Yrotation
            JOINT LeftWrist
            {
              OFFSET 0 -9.82 0
              CHANNELS 6 Xposition Yposition Zposition Zrotation Xrotation Yrotation
              End Site
              {
                OFFSET 0 -7.37 0
              }
            }
          }
        }
      }
      JOINT RightCollar
      {
        OFFSET -1.06 4.19 1.76
        CHANNELS 6 Xposition Yposition Zposition Zrotation Xrotation Yrotation
        JOINT RightShoulder
        {
          OFFSET -6.06 0 0
          CHANNELS 6 Xposition Yposition Zposition Zrotation Xrotation Yrotation
          JOINT RightElbow
          {
            OFFSET 0 -11.08 0
            CHANNELS 6 Xposition Yposition Zposition Zrotation Xrotation Yrotation
            JOINT RightWrist
            {
              OFFSET 0 -9.82 0
              CHANNELS 6 Xposition Yposition Zposition Zrotation Xrotation Yrotation
              End Site
              {
                OFFSET 0 -7.14001 0
              }
            }
          }
        }
      }
      JOINT Neck
      {
        OFFSET 0 4.05 0
        CHANNELS 6 Xposition Yposition Zposition Zrotation Xrotation Yrotation
        JOINT Head
        {
          OFFSET 0 5.19 0
          CHANNELS 6 Xposition Yposition Zposition Zrotation Xrotation Yrotation
          End Site
          {
            OFFSET 0 4.14001 0
          }
        }
      }
    }
  }
}
MOTION
Frames:	10
Frame Time:	0.04
0.387358 35.107 0.809333 -3.66505 7.24535 1.43589 3.43 -4.26326e-014 -2.66454e-015 5.21141 -34.0944 -1.27167 -5.1692e-013 -18.47 -4.33431e-013 3.2651e-006 85.4485 4.24064 4.29878e-012 -17.95 2.49223e-012 -0.284174 -4.0129 -0.00995563 -3.43 -4.9738e-014 3.55271e-015 4.31608 -18.2614 -6.4568 -1.35447e-014 -18.47 1.0667e-012 7.16702e-008 53.0084 2.00112 2.13407e-012 -17.95 -5.80869e-013 -4.42172 -39.3797 -1.58301 0 4.57 -8.43769e-015 5.07787 1.49811 3.88859 -2.22045e-015 6.57 -1.77636e-015 3.67014 1.73221 4.68501 1.06 4.19 1.76 -13.3057 -2.53674 15.649 5.81 -7.10543e-015 -4.44089e-015 38.6234 4.31167 -38.6897 8.49099e-013 -12.08 1.88294e-012 -180 -83.2936 -175.547 -5.27223e-012 -9.82 -1.03739e-011 1.22559 -8.36493 -4.71253 -1.06 4.19 1.76 10.6015 0.428742 1.0449 -6.06 -2.84217e-014 2.93099e-014 -23.5189 13.2029 10.1321 -2.66454e-014 -11.08 2.69651e-012 180 -74.6246 177.305 -4.51195e-013 -9.82 -1.32232e-011 -17.4775 -6.51752 5.31839 0 4.05 -2.04281e-014 -10.2334 -21.2708 -0.863964 4.44089e-016 5.19 -7.10543e-014 2.55318 6.22502 -2.61635 
0.436318 36.3776 4.92331 -1.75188 7.90304 4.99098 3.43 -4.26326e-014 -1.32565e-015 -1.59299 -38.1198 -5.76848 4.92939e-013 -18.47 -9.87654e-013 6.25858e-008 71.3275 -0.332009 -1.5703e-012 -17.95 2.94698e-012 -3.50187 -10.0224 -0.307158 -3.43 -4.9738e-014 3.55271e-015 2.72408 -8.03224 -8.49908 1.4122e-013 -18.47 -8.26006e-013 -1.12123e-008 42.7427 1.94374 1.04361e-014 -17.95 -7.14095e-013 -3.53817 -31.9677 -1.01377 0 4.57 2.99739e-014 3.89132 0.737048 4.02489 -2.22045e-015 6.57 -1.77636e-015 1.91789 0.906311 4.62531 1.06 4.19 1.76 -13.1236 -2.53155 15.7749 5.81 -7.10543e-015 -4.44089e-015 46.9182 10.1142 -39.0991 -3.97904e-013 -12.08 -2.62901e-013 -180 -78.1278 -171.168 2.40874e-012 -9.82 2.14584e-012 -4.26288 -8.80153 -7.69364 -1.06 4.19 1.76 6.96761 0.680245 3.76387 -6.06 -2.84217e-014 2.93099e-014 -18.1412 8.69729 10.1678 7.4607e-014 -11.08 -1.15286e-012 -180 -67.5696 175.319 1.10489e-012 -9.82 4.66116e-012 -16.5027 -7.34204 5.48472 0 4.05 -2.04281e-014 -12.4773 -20.9095 -1.43341 4.44089e-016 5.19 -7.10543e-014 5.3498 5.76525 -4.17003 
0.26767 37.6875 9.3338 -0.578354 7.37719 6.44353 3.43 -4.26326e-014 3.58481e-015 -4.19644 -36.3326 -5.4236 -4.0945e-013 -18.47 -2.20268e-013 1.4929e-007 50.3899 -3.2411 -1.80256e-012 -17.95 3.71259e-013 -8.09576 -12.1713 -0.864558 -3.43 -4.9738e-014 3.55271e-015 2.80786 1.69395 -7.67276 1.93706e-013 -18.47 -1.49347e-012 0.994294 34.0126 0.905009 1.16107e-012 -17.95 -3.83693e-012 -3.0342 -16.488 -0.439715 0 4.57 9.61749e-014 2.90933 0.220752 4.8044 -2.22045e-015 6.57 -1.77636e-015 1.06712 0.360099 5.1828 1.06 4.19 1.76 -12.5479 -2.34792 15.126 5.81 -7.10543e-015 -4.44089e-015 52.6394 15.289 -38.92 -1.51346e-012 -12.08 -1.0445e-012 -180 -74.5032 -168.481 4.02522e-012 -9.82 5.04485e-012 -6.19764 -7.60603 -9.91514 -1.06 4.19 1.76 3.4651 0.639662 4.78165 -6.06 -2.84217e-014 2.93099e-014 -17.9829 7.14269 14.1317 1.10489e-012 -11.08 -1.79234e-012 180 -60.8603 172.199 -3.68772e-012 -9.82 7.18359e-012 -14.0033 -8.21846 7.60235 0 4.05 -2.04281e-014 -15.7589 -19.8165 -2.19864 4.44089e-016 5.19 -7.10543e-014 8.95493 5.85877 -6.37664 
0.0781057 38.5883 13.7825 -0.875384 7.09935 5.97764 3.43 -4.26326e-014 1.12426e-014 -3.81407 -33.481 -3.10427 -1.30296e-012 -18.47 2.59348e-012 -0.526062 30.3828 -5.79136 -1.62714e-012 -17.95 3.77298e-012 -10.3548 -13.857 -1.26167 -3.43 -4.9738e-014 3.55271e-015 3.01352 6.21261 -6.02068 1.2701e-013 -18.47 -2.01261e-012 1.83051 31.4735 2.5437 3.71769e-012 -17.95 -5.6648e-012 1.93409 5.88529 -0.0994294 0 4.57 1.76271e-013 2.7106 -0.481504 5.81497 -2.22045e-015 6.57 -1.77636e-015 1.05493 -0.411902 6.0715 1.06 4.19 1.76 -11.527 -2.06805 14.1684 5.81 -7.10543e-015 -4.44089e-015 54.8341 20.0562 -37.9267 -4.93827e-013 -12.08 -1.1191e-012 -180 -71.5317 -167.384 3.62377e-013 -9.82 3.41061e-012 -5.97758 -7.44252 -12.2666 -1.06 4.19 1.76 1.5476 0.560035 4.79518 -6.06 -2.84217e-014 2.93099e-014 -20.8965 7.16372 19.0862 6.11067e-013 -11.08 -7.08766e-013 -180 -56.0516 170.291 -6.81055e-012 -9.82 5.13012e-012 -10.9124 -9.67208 13.3604 0 4.05 -2.04281e-014 -17.1912 -18.7895 -2.60627 4.44089e-016 5.19 -7.10543e-014 10.8692 7.17173 -7.72918 
0.0214117 38.6973 17.8829 -1.39597 6.91117 5.56203 3.43 -4.26326e-014 2.08236e-014 -4.54385 -33.0725 -4.53367 3.55271e-013 -18.47 -1.42109e-013 0.311037 20.2655 -4.49813 1.40554e-012 -17.95 -6.00409e-013 -8.22445 -14.0191 -1.01294 -3.43 -4.9738e-014 3.55271e-015 2.20882 7.405 -9.48052 -1.94955e-013 -18.47 -8.52651e-013 0.54723 35.7592 2.16442 -1.92113e-012 -17.95 -2.05791e-012 11.1998 18.8155 -1.86144 0 4.57 2.56366e-013 2.32129 -0.643595 6.30692 -2.22045e-015 6.57 -1.77636e-015 1.77015 -0.672904 6.44438 1.06 4.19 1.76 -11.2824 -2.01107 13.9895 5.81 -7.10543e-015 -4.44089e-015 54.5686 21.8999 -37.4088 2.66454e-013 -12.08 -6.71463e-013 -180 -69.349 -166.482 -1.77636e-012 -9.82 6.60805e-013 -6.64774 -7.34103 -13.7563 -1.06 4.19 1.76 0.816834 0.518941 4.59064 -6.06 -2.84217e-014 2.93099e-014 -23.2163 8.56185 21.6959 5.68434e-014 -11.08 4.13003e-013 -180 -53.7237 169.494 -3.39995e-012 -9.82 1.44951e-012 -8.52008 -10.3055 17.7964 0 4.05 -2.04281e-014 -17.3994 -18.5048 -3.22134 4.44089e-016 5.19 -7.10543e-014 10.8601 8.33165 -8.45754 
-0.00741187 38.001 21.7567 -1.1134 6.04411 5.66464 3.43 -4.26326e-014 3.15036e-014 -7.01838 -35.7149 -6.98182 7.83373e-013 -18.47 1.14397e-012 1.53225 24.118 -8.11069 1.3598e-012 -17.95 1.74794e-012 -3.96021 -13.0831 -0.454295 -3.43 -4.9738e-014 3.55271e-015 0.246575 6.02176 -12.2522 -6.25278e-013 -18.47 -2.04636e-012 -9.32476e-009 48.4243 -2.04857 -7.77955e-012 -17.95 7.69163e-013 11.4869 18.6666 -1.89409 0 4.57 3.22567e-013 0.922467 0.0790708 5.92709 -2.22045e-015 6.57 -1.77636e-015 2.02847 -0.0415076 5.86365 1.06 4.19 1.76 -10.9371 -1.99953 14.2125 5.81 -7.10543e-015 -4.44089e-015 52.2481 19.879 -37.3941 -2.31992e-012 -12.08 4.72511e-013 180 -68.9677 -166.081 7.99716e-012 -9.82 1.61293e-012 -6.02375 -7.48003 -13.5929 -1.06 4.19 1.76 2.88931 0.617712 4.81368 -6.06 -2.84217e-014 2.93099e-014 -24.5289 11.159 20.6929 1.23634e-012 -11.08 -1.6902e-012 180 -55.0883 168.762 -2.76401e-012 -9.82 4.96669e-012 -8.39554 -9.73062 15.7613 0 4.05 -2.04281e-014 -14.9642 -17.2062 -3.37676 4.44089e-016 5.19 -7.10543e-014 8.9167 7.12528 -7.80874 
0.0988301 36.7185 25.9968 0.575354 3.32858 5.67996 3.43 -4.26326e-014 4.24582e-014 -10.9405 -36.4342 -12.3345 -6.48814e-013 -18.47 1.08002e-012 0.211934 37.2601 -1.3026 -5.86198e-014 -17.95 6.18172e-013 3.05065 -4.80027 0.127898 -3.43 -4.9738e-014 3.55271e-015 -3.76419 6.01755 -13.9148 -1.86517e-014 -18.47 -3.83693e-013 3.3723e-007 62.0424 -9.26447 1.5854e-012 -17.95 8.10019e-013 9.26683 18.1601 -1.48415 0 4.57 3.60979e-013 -0.909528 1.55431 5.18723 -2.22045e-015 6.57 -1.77636e-015 1.11654 1.49363 4.80083 1.06 4.19 1.76 -10.5314 -2.01092 14.6666 5.81 -7.10543e-015 -4.44089e-015 49.3678 14.0661 -38.8076 3.83693e-013 -12.08 -1.49214e-012 -180 -70.7934 -166.9 -2.73559e-012 -9.82 3.38929e-012 -6.15145 -7.94242 -13.0051 -1.06 4.19 1.76 6.29673 0.772911 4.92438 -6.06 -2.84217e-014 2.93099e-014 -24.4829 14.1905 18.4652 1.07647e-012 -11.08 4.16556e-013 180 -59.8207 169.811 -1.02354e-011 -9.82 3.5314e-012 -10.4506 -8.77239 11.8694 0 4.05 -2.04281e-014 -11.1768 -13.8472 -3.03492 4.44089e-016 5.19 -7.10543e-014 6.83502 3.82778 -6.55774 
0.353698 35.3669 30.0382 3.41546 2.83653 6.25113 3.43 -4.26326e-014 5.28634e-014 -15.8327 -36.931 -13.7888 -1.64313e-014 -18.47 -4.61853e-013 4.25352e-009 53.0317 0.124266 1.99618e-012 -17.95 -2.06057e-013 4.28142 -16.9475 0.63815 -3.43 -4.9738e-014 3.55271e-015 -9.74872 1.43088 -14.7941 9.60121e-013 -18.47 -5.7554e-013 -1.58101e-006 76.3473 -15.5548 4.43201e-012 -17.95 1.19904e-012 9.0271 14.2446 -1.13025 0 4.57 3.57706e-013 -3.01111 2.50373 4.08437 -2.22045e-015 6.57 -1.77636e-015 -1.28667 2.60893 3.50101 1.06 4.19 1.76 -11.6667 -2.39993 16.2762 5.81 -7.10543e-015 -4.44089e-015 47.6151 1.87345 -40.4141 5.32907e-013 -12.08 2.93099e-013 -180 -74.7439 -169.011 -1.84741e-013 -9.82 9.66338e-013 -4.15098 -7.56913 -10.5827 -1.06 4.19 1.76 12.0994 0.806533 3.46421 -6.06 -2.84217e-014 2.93099e-014 -26.2687 15.3211 16.1305 3.58824e-013 -11.08 -4.32543e-013 -180 -66.0626 171.864 2.5544e-012 -9.82 1.07292e-012 -12.6723 -6.85226 8.24976 0 4.05 -2.04281e-014 -6.5882 -14.8883 -3.41839 4.44089e-016 5.19 -7.10543e-014 3.47952 3.0647 -5.14956 
0.47605 34.4405 33.8593 5.26416 3.13278 4.4664 3.43 -4.26326e-014 6.18949e-014 -17.1564 -34.5448 -12.0105 -6.31495e-013 -18.47 -1.49925e-012 -1.56539e-008 61.0386 1.40968 1.97176e-013 -17.95 2.40163e-012 5.09825 -27.7608 1.26062 -3.43 -4.9738e-014 3.55271e-015 -12.7534 -7.38889 -11.4697 -8.11351e-013 -18.47 -6.60805e-013 -2.06022e-005 87.8744 -15.5225 6.88694e-012 -17.95 3.12284e-012 5.17357 7.85296 -0.355341 0 4.57 2.98855e-013 -4.77082 3.08057 3.81094 -2.22045e-015 6.57 -1.77636e-015 -2.67433 3.30479 3.27237 1.06 4.19 1.76 -14.0109 -3.04919 18.0638 5.81 -7.10543e-015 -4.44089e-015 44.0266 -12.0301 -42.4874 -4.1922e-013 -12.08 -3.48166e-013 180 -79.2523 -172.146 1.25411e-012 -9.82 1.99663e-012 -2.29602 -7.21962 -8.05152 -1.06 4.19 1.76 16.8354 0.79423 2.63657 -6.06 -2.84217e-014 2.93099e-014 -28.0951 17.8557 14.5874 5.15143e-013 -11.08 -2.71783e-013 -180 -74.5808 173.074 -2.52243e-013 -9.82 1.37135e-012 -13.3592 -5.14324 2.72019 0 4.05 -2.04281e-014 -4.27217 -16.9813 -3.29906 4.44089e-016 5.19 -7.10543e-014 1.99789 3.20992 -4.21594 
0.534618 34.3144 37.7362 6.59865 3.16536 0.990083 3.43 -4.26326e-014 6.87286e-014 -15.4105 -28.2347 -6.38859 -1.70086e-013 -18.47 -2.13163e-014 9.82011e-008 61.2267 1.73267 -2.09166e-012 -17.95 3.6593e-013 6.1916 -34.9446 1.95062 -3.43 -4.9738e-014 3.55271e-015 -13.5773 -16.9167 -5.9296 -2.82885e-013 -18.47 -4.68958e-013 -180 87.9573 170.092 2.30749e-012 -17.95 3.5163e-012 0.743899 1.36243 -0.00884511 0 4.57 1.7053e-013 -6.24321 3.07827 3.01333 -2.22045e-015 6.57 -1.77636e-015 -3.51666 3.38245 2.47177 1.06 4.19 1.76 -13.5277 -2.70419 16.4679 5.81 -7.10543e-015 -4.44089e-015 37.5105 -16.3608 -40.1538 2.84217e-014 -12.08 3.97904e-013 -180 -79.7675 -172.692 9.30811e-013 -9.82 -1.91847e-012 2.01458 -6.82535 -5.69062 -1.06 4.19 1.76 17.6389 0.443596 0.789335 -6.06 -2.84217e-014 2.93099e-014 -29.7301 20.1571 19.1895 3.19744e-014 -11.08 3.74367e-013 180 -79.0123 170.744 1.45306e-012 -9.82 -2.67164e-012 -12.6385 -5.03296 -2.71458 0 4.05 -2.04281e-014 -1.63513 -17.732 -1.93996 4.44089e-016 5.19 -7.10543e-014 1.41861 3.01208 -2.38699 
